# xmcd CD database file
#
# Track frame offsets:
#	150
#	34462
#	52725
#	83625
#	105225
#	132800
#	162700
#	195450
#	222512
#	246000
#	266350
#	288300
#	322425
#
# Disc length: 4600 seconds
#
# Revision: 0
# Processed by: cddbd v1.5.1PL0 Copyright (c) Steve Scherf et al.
# Submitted via: CDex 1.51
#
DISCID=ba11f60d
DTITLE=Rick Laird and Tom Grant - Rick Laird and Tom Grant
DYEAR=1989
DGENRE=Jazz
TTITLE0=Outer Surge
TTITLE1=Now you know
TTITLE2=Thorn in a white robe
TTITLE3=I love you
TTITLE4=Soft Focus
TTITLE5=Tranquility
TTITLE6=We ll be together again
TTITLE7=No Me Esqueca
TTITLE8=Peddle has a Point
TTITLE9=Gazelle
TTITLE10=Caribean Firedance
TTITLE11=Mysified
TTITLE12=Pannonica
EXTD=YEAR: 1989
EXTT0=
EXTT1=
EXTT2=
EXTT3=
EXTT4=
EXTT5=
EXTT6=
EXTT7=
EXTT8=
EXTT9=
EXTT10=
EXTT11=
EXTT12=
PLAYORDER=
